<svg width="48" height="48" viewBox="0 0 48 48" fill="none" xmlns="http://www.w3.org/2000/svg">
  <rect x="4" y="6" width="40" height="30" rx="12" fill="#111827"/>
  <path d="M15.5 19C15.5 15.9624 17.9624 13.5 21 13.5H27C30.0376 13.5 32.5 15.9624 32.5 19C32.5 21.4213 31.0175 23.4102 28.75 24.1158V25.25C28.75 26.2165 27.9665 27 27 27C26.0335 27 25.25 26.2165 25.25 25.25V22.75C25.25 21.7835 26.0335 21 27 21C28.5188 21 29.75 19.7688 29.75 18.25C29.75 16.7312 28.5188 15.5 27 15.5H21C19.4812 15.5 18.25 16.7312 18.25 18.25C18.25 19.2165 17.4665 20 16.5 20C15.5335 20 15.5 19.7163 15.5 19Z" fill="white"/>
  <circle cx="21" cy="29.5" r="1.75" fill="#22C55E"/>
  <path d="M14 33.5L13.2 38.3C13.0876 38.9746 13.7254 39.5124 14.3758 39.2907L19.5 37.5" stroke="#111827" stroke-width="1.4" stroke-linecap="round" stroke-linejoin="round"/>
</svg>

